<svg id="visual" viewBox="0 0 1920 1080" width="1920" height="1080" xmlns="http://www.w3.org/2000/svg" xmlns:xlink="http://www.w3.org/1999/xlink" version="1.1"><rect x="0" y="0" width="1920" height="1080" fill="#F6F6F6"></rect><path d="M0 161L20 159.3C40 157.7 80 154.3 120 157.5C160 160.7 200 170.3 240 156C280 141.7 320 103.3 360 78.7C400 54 440 43 480 61.2C520 79.3 560 126.7 600 144C640 161.3 680 148.7 720 145.5C760 142.3 800 148.7 840 142.5C880 136.3 920 117.7 960 108C1000 98.3 1040 97.7 1080 91.3C1120 85 1160 73 1200 72.8C1240 72.7 1280 84.3 1320 103.2C1360 122 1400 148 1440 140.8C1480 133.7 1520 93.3 1560 70.8C1600 48.3 1640 43.7 1680 44.8C1720 46 1760 53 1800 57C1840 61 1880 62 1900 62.5L1920 63L1920 0L1900 0C1880 0 1840 0 1800 0C1760 0 1720 0 1680 0C1640 0 1600 0 1560 0C1520 0 1480 0 1440 0C1400 0 1360 0 1320 0C1280 0 1240 0 1200 0C1160 0 1120 0 1080 0C1040 0 1000 0 960 0C920 0 880 0 840 0C800 0 760 0 720 0C680 0 640 0 600 0C560 0 520 0 480 0C440 0 400 0 360 0C320 0 280 0 240 0C200 0 160 0 120 0C80 0 40 0 20 0L0 0Z" fill="#73a580" stroke-linecap="round" stroke-linejoin="miter"></path></svg>